<?xml version="1.0" encoding="utf-8" standalone="no"?>
<!DOCTYPE svg PUBLIC "-//W3C//DTD SVG 1.1//EN"
  "http://www.w3.org/Graphics/SVG/1.1/DTD/svg11.dtd">
<!-- Created with matplotlib (https://matplotlib.org/) -->
<svg height="288pt" version="1.1" viewBox="0 0 360 288" width="360pt" xmlns="http://www.w3.org/2000/svg" xmlns:xlink="http://www.w3.org/1999/xlink">
 <defs>
  <style type="text/css">
*{stroke-linecap:butt;stroke-linejoin:round;}
  </style>
 </defs>
 <g id="figure_1">
  <g id="patch_1">
   <path d="M 0 288 
L 360 288 
L 360 0 
L 0 0 
z
" style="fill:#ffffff;"/>
  </g>
  <g id="axes_1">
   <g id="patch_2">
    <path d="M 56.015346 246.04 
L 349.2 246.04 
L 349.2 51.152 
L 56.015346 51.152 
z
" style="fill:#ffffff;"/>
   </g>
   <g id="matplotlib.axis_1">
    <g id="xtick_1">
     <g id="line2d_1">
      <defs>
       <path d="M 0 0 
L 0 3.5 
" id="m69fb7ad8f9" style="stroke:#000000;stroke-width:0.8;"/>
      </defs>
      <g>
       <use style="stroke:#000000;stroke-width:0.8;" x="69.341911" xlink:href="#m69fb7ad8f9" y="246.04"/>
      </g>
     </g>
     <g id="text_1">
      <!-- 0 -->
      <defs>
       <path d="M 31.78125 66.40625 
Q 24.171875 66.40625 20.328125 58.90625 
Q 16.5 51.421875 16.5 36.375 
Q 16.5 21.390625 20.328125 13.890625 
Q 24.171875 6.390625 31.78125 6.390625 
Q 39.453125 6.390625 43.28125 13.890625 
Q 47.125 21.390625 47.125 36.375 
Q 47.125 51.421875 43.28125 58.90625 
Q 39.453125 66.40625 31.78125 66.40625 
z
M 31.78125 74.21875 
Q 44.046875 74.21875 50.515625 64.515625 
Q 56.984375 54.828125 56.984375 36.375 
Q 56.984375 17.96875 50.515625 8.265625 
Q 44.046875 -1.421875 31.78125 -1.421875 
Q 19.53125 -1.421875 13.0625 8.265625 
Q 6.59375 17.96875 6.59375 36.375 
Q 6.59375 54.828125 13.0625 64.515625 
Q 19.53125 74.21875 31.78125 74.21875 
z
" id="DejaVuSans-48"/>
      </defs>
      <g transform="translate(66.160661 260.638438)scale(0.1 -0.1)">
       <use xlink:href="#DejaVuSans-48"/>
      </g>
     </g>
    </g>
    <g id="xtick_2">
     <g id="line2d_2">
      <g>
       <use style="stroke:#000000;stroke-width:0.8;" x="122.648211" xlink:href="#m69fb7ad8f9" y="246.04"/>
      </g>
     </g>
     <g id="text_2">
      <!-- 5 -->
      <defs>
       <path d="M 10.796875 72.90625 
L 49.515625 72.90625 
L 49.515625 64.59375 
L 19.828125 64.59375 
L 19.828125 46.734375 
Q 21.96875 47.46875 24.109375 47.828125 
Q 26.265625 48.1875 28.421875 48.1875 
Q 40.625 48.1875 47.75 41.5 
Q 54.890625 34.8125 54.890625 23.390625 
Q 54.890625 11.625 47.5625 5.09375 
Q 40.234375 -1.421875 26.90625 -1.421875 
Q 22.3125 -1.421875 17.546875 -0.640625 
Q 12.796875 0.140625 7.71875 1.703125 
L 7.71875 11.625 
Q 12.109375 9.234375 16.796875 8.0625 
Q 21.484375 6.890625 26.703125 6.890625 
Q 35.15625 6.890625 40.078125 11.328125 
Q 45.015625 15.765625 45.015625 23.390625 
Q 45.015625 31 40.078125 35.4375 
Q 35.15625 39.890625 26.703125 39.890625 
Q 22.75 39.890625 18.8125 39.015625 
Q 14.890625 38.140625 10.796875 36.28125 
z
" id="DejaVuSans-53"/>
      </defs>
      <g transform="translate(119.466961 260.638438)scale(0.1 -0.1)">
       <use xlink:href="#DejaVuSans-53"/>
      </g>
     </g>
    </g>
    <g id="xtick_3">
     <g id="line2d_3">
      <g>
       <use style="stroke:#000000;stroke-width:0.8;" x="175.954512" xlink:href="#m69fb7ad8f9" y="246.04"/>
      </g>
     </g>
     <g id="text_3">
      <!-- 10 -->
      <defs>
       <path d="M 12.40625 8.296875 
L 28.515625 8.296875 
L 28.515625 63.921875 
L 10.984375 60.40625 
L 10.984375 69.390625 
L 28.421875 72.90625 
L 38.28125 72.90625 
L 38.28125 8.296875 
L 54.390625 8.296875 
L 54.390625 0 
L 12.40625 0 
z
" id="DejaVuSans-49"/>
      </defs>
      <g transform="translate(169.592012 260.638438)scale(0.1 -0.1)">
       <use xlink:href="#DejaVuSans-49"/>
       <use x="63.623047" xlink:href="#DejaVuSans-48"/>
      </g>
     </g>
    </g>
    <g id="xtick_4">
     <g id="line2d_4">
      <g>
       <use style="stroke:#000000;stroke-width:0.8;" x="229.260813" xlink:href="#m69fb7ad8f9" y="246.04"/>
      </g>
     </g>
     <g id="text_4">
      <!-- 15 -->
      <g transform="translate(222.898313 260.638438)scale(0.1 -0.1)">
       <use xlink:href="#DejaVuSans-49"/>
       <use x="63.623047" xlink:href="#DejaVuSans-53"/>
      </g>
     </g>
    </g>
    <g id="xtick_5">
     <g id="line2d_5">
      <g>
       <use style="stroke:#000000;stroke-width:0.8;" x="282.567113" xlink:href="#m69fb7ad8f9" y="246.04"/>
      </g>
     </g>
     <g id="text_5">
      <!-- 20 -->
      <defs>
       <path d="M 19.1875 8.296875 
L 53.609375 8.296875 
L 53.609375 0 
L 7.328125 0 
L 7.328125 8.296875 
Q 12.9375 14.109375 22.625 23.890625 
Q 32.328125 33.6875 34.8125 36.53125 
Q 39.546875 41.84375 41.421875 45.53125 
Q 43.3125 49.21875 43.3125 52.78125 
Q 43.3125 58.59375 39.234375 62.25 
Q 35.15625 65.921875 28.609375 65.921875 
Q 23.96875 65.921875 18.8125 64.3125 
Q 13.671875 62.703125 7.8125 59.421875 
L 7.8125 69.390625 
Q 13.765625 71.78125 18.9375 73 
Q 24.125 74.21875 28.421875 74.21875 
Q 39.75 74.21875 46.484375 68.546875 
Q 53.21875 62.890625 53.21875 53.421875 
Q 53.21875 48.921875 51.53125 44.890625 
Q 49.859375 40.875 45.40625 35.40625 
Q 44.1875 33.984375 37.640625 27.21875 
Q 31.109375 20.453125 19.1875 8.296875 
z
" id="DejaVuSans-50"/>
      </defs>
      <g transform="translate(276.204613 260.638438)scale(0.1 -0.1)">
       <use xlink:href="#DejaVuSans-50"/>
       <use x="63.623047" xlink:href="#DejaVuSans-48"/>
      </g>
     </g>
    </g>
    <g id="xtick_6">
     <g id="line2d_6">
      <g>
       <use style="stroke:#000000;stroke-width:0.8;" x="335.873414" xlink:href="#m69fb7ad8f9" y="246.04"/>
      </g>
     </g>
     <g id="text_6">
      <!-- 25 -->
      <g transform="translate(329.510914 260.638438)scale(0.1 -0.1)">
       <use xlink:href="#DejaVuSans-50"/>
       <use x="63.623047" xlink:href="#DejaVuSans-53"/>
      </g>
     </g>
    </g>
    <g id="text_7">
     <!-- t -->
     <defs>
      <path d="M 18.3125 70.21875 
L 18.3125 54.6875 
L 36.8125 54.6875 
L 36.8125 47.703125 
L 18.3125 47.703125 
L 18.3125 18.015625 
Q 18.3125 11.328125 20.140625 9.421875 
Q 21.96875 7.515625 27.59375 7.515625 
L 36.8125 7.515625 
L 36.8125 0 
L 27.59375 0 
Q 17.1875 0 13.234375 3.875 
Q 9.28125 7.765625 9.28125 18.015625 
L 9.28125 47.703125 
L 2.6875 47.703125 
L 2.6875 54.6875 
L 9.28125 54.6875 
L 9.28125 70.21875 
z
" id="DejaVuSans-116"/>
     </defs>
     <g transform="translate(200.647517 274.316562)scale(0.1 -0.1)">
      <use xlink:href="#DejaVuSans-116"/>
     </g>
    </g>
   </g>
   <g id="matplotlib.axis_2">
    <g id="ytick_1">
     <g id="line2d_7">
      <defs>
       <path d="M 0 0 
L -3.5 0 
" id="mcb21e41cf1" style="stroke:#000000;stroke-width:0.8;"/>
      </defs>
      <g>
       <use style="stroke:#000000;stroke-width:0.8;" x="56.015346" xlink:href="#mcb21e41cf1" y="246.04"/>
      </g>
     </g>
     <g id="text_8">
      <!-- $\mathdefault{10^{-4}}$ -->
      <defs>
       <path d="M 10.59375 35.5 
L 73.1875 35.5 
L 73.1875 27.203125 
L 10.59375 27.203125 
z
" id="DejaVuSans-8722"/>
       <path d="M 37.796875 64.3125 
L 12.890625 25.390625 
L 37.796875 25.390625 
z
M 35.203125 72.90625 
L 47.609375 72.90625 
L 47.609375 25.390625 
L 58.015625 25.390625 
L 58.015625 17.1875 
L 47.609375 17.1875 
L 47.609375 0 
L 37.796875 0 
L 37.796875 17.1875 
L 4.890625 17.1875 
L 4.890625 26.703125 
z
" id="DejaVuSans-52"/>
      </defs>
      <g transform="translate(25.515346 249.839219)scale(0.1 -0.1)">
       <use transform="translate(0 0.684375)" xlink:href="#DejaVuSans-49"/>
       <use transform="translate(63.623047 0.684375)" xlink:href="#DejaVuSans-48"/>
       <use transform="translate(128.203125 38.965625)scale(0.7)" xlink:href="#DejaVuSans-8722"/>
       <use transform="translate(186.855469 38.965625)scale(0.7)" xlink:href="#DejaVuSans-52"/>
      </g>
     </g>
    </g>
    <g id="ytick_2">
     <g id="line2d_8">
      <g>
       <use style="stroke:#000000;stroke-width:0.8;" x="56.015346" xlink:href="#mcb21e41cf1" y="177.982843"/>
      </g>
     </g>
     <g id="text_9">
      <!-- $\mathdefault{10^{-3}}$ -->
      <defs>
       <path d="M 40.578125 39.3125 
Q 47.65625 37.796875 51.625 33 
Q 55.609375 28.21875 55.609375 21.1875 
Q 55.609375 10.40625 48.1875 4.484375 
Q 40.765625 -1.421875 27.09375 -1.421875 
Q 22.515625 -1.421875 17.65625 -0.515625 
Q 12.796875 0.390625 7.625 2.203125 
L 7.625 11.71875 
Q 11.71875 9.328125 16.59375 8.109375 
Q 21.484375 6.890625 26.8125 6.890625 
Q 36.078125 6.890625 40.9375 10.546875 
Q 45.796875 14.203125 45.796875 21.1875 
Q 45.796875 27.640625 41.28125 31.265625 
Q 36.765625 34.90625 28.71875 34.90625 
L 20.21875 34.90625 
L 20.21875 43.015625 
L 29.109375 43.015625 
Q 36.375 43.015625 40.234375 45.921875 
Q 44.09375 48.828125 44.09375 54.296875 
Q 44.09375 59.90625 40.109375 62.90625 
Q 36.140625 65.921875 28.71875 65.921875 
Q 24.65625 65.921875 20.015625 65.03125 
Q 15.375 64.15625 9.8125 62.3125 
L 9.8125 71.09375 
Q 15.4375 72.65625 20.34375 73.4375 
Q 25.25 74.21875 29.59375 74.21875 
Q 40.828125 74.21875 47.359375 69.109375 
Q 53.90625 64.015625 53.90625 55.328125 
Q 53.90625 49.265625 50.4375 45.09375 
Q 46.96875 40.921875 40.578125 39.3125 
z
" id="DejaVuSans-51"/>
      </defs>
      <g transform="translate(25.515346 181.782062)scale(0.1 -0.1)">
       <use transform="translate(0 0.765625)" xlink:href="#DejaVuSans-49"/>
       <use transform="translate(63.623047 0.765625)" xlink:href="#DejaVuSans-48"/>
       <use transform="translate(128.203125 39.046875)scale(0.7)" xlink:href="#DejaVuSans-8722"/>
       <use transform="translate(186.855469 39.046875)scale(0.7)" xlink:href="#DejaVuSans-51"/>
      </g>
     </g>
    </g>
    <g id="ytick_3">
     <g id="line2d_9">
      <g>
       <use style="stroke:#000000;stroke-width:0.8;" x="56.015346" xlink:href="#mcb21e41cf1" y="109.925686"/>
      </g>
     </g>
     <g id="text_10">
      <!-- $\mathdefault{10^{-2}}$ -->
      <g transform="translate(25.515346 113.724905)scale(0.1 -0.1)">
       <use transform="translate(0 0.765625)" xlink:href="#DejaVuSans-49"/>
       <use transform="translate(63.623047 0.765625)" xlink:href="#DejaVuSans-48"/>
       <use transform="translate(128.203125 39.046875)scale(0.7)" xlink:href="#DejaVuSans-8722"/>
       <use transform="translate(186.855469 39.046875)scale(0.7)" xlink:href="#DejaVuSans-50"/>
      </g>
     </g>
    </g>
    <g id="ytick_4">
     <g id="line2d_10">
      <defs>
       <path d="M 0 0 
L -2 0 
" id="m09ac16e8db" style="stroke:#000000;stroke-width:0.6;"/>
      </defs>
      <g>
       <use style="stroke:#000000;stroke-width:0.6;" x="56.015346" xlink:href="#m09ac16e8db" y="225.552754"/>
      </g>
     </g>
    </g>
    <g id="ytick_5">
     <g id="line2d_11">
      <g>
       <use style="stroke:#000000;stroke-width:0.6;" x="56.015346" xlink:href="#m09ac16e8db" y="213.568484"/>
      </g>
     </g>
    </g>
    <g id="ytick_6">
     <g id="line2d_12">
      <g>
       <use style="stroke:#000000;stroke-width:0.6;" x="56.015346" xlink:href="#m09ac16e8db" y="205.065509"/>
      </g>
     </g>
    </g>
    <g id="ytick_7">
     <g id="line2d_13">
      <g>
       <use style="stroke:#000000;stroke-width:0.6;" x="56.015346" xlink:href="#m09ac16e8db" y="198.470089"/>
      </g>
     </g>
    </g>
    <g id="ytick_8">
     <g id="line2d_14">
      <g>
       <use style="stroke:#000000;stroke-width:0.6;" x="56.015346" xlink:href="#m09ac16e8db" y="193.081238"/>
      </g>
     </g>
    </g>
    <g id="ytick_9">
     <g id="line2d_15">
      <g>
       <use style="stroke:#000000;stroke-width:0.6;" x="56.015346" xlink:href="#m09ac16e8db" y="188.52503"/>
      </g>
     </g>
    </g>
    <g id="ytick_10">
     <g id="line2d_16">
      <g>
       <use style="stroke:#000000;stroke-width:0.6;" x="56.015346" xlink:href="#m09ac16e8db" y="184.578263"/>
      </g>
     </g>
    </g>
    <g id="ytick_11">
     <g id="line2d_17">
      <g>
       <use style="stroke:#000000;stroke-width:0.6;" x="56.015346" xlink:href="#m09ac16e8db" y="181.096968"/>
      </g>
     </g>
    </g>
    <g id="ytick_12">
     <g id="line2d_18">
      <g>
       <use style="stroke:#000000;stroke-width:0.6;" x="56.015346" xlink:href="#m09ac16e8db" y="157.495597"/>
      </g>
     </g>
    </g>
    <g id="ytick_13">
     <g id="line2d_19">
      <g>
       <use style="stroke:#000000;stroke-width:0.6;" x="56.015346" xlink:href="#m09ac16e8db" y="145.511327"/>
      </g>
     </g>
    </g>
    <g id="ytick_14">
     <g id="line2d_20">
      <g>
       <use style="stroke:#000000;stroke-width:0.6;" x="56.015346" xlink:href="#m09ac16e8db" y="137.008352"/>
      </g>
     </g>
    </g>
    <g id="ytick_15">
     <g id="line2d_21">
      <g>
       <use style="stroke:#000000;stroke-width:0.6;" x="56.015346" xlink:href="#m09ac16e8db" y="130.412932"/>
      </g>
     </g>
    </g>
    <g id="ytick_16">
     <g id="line2d_22">
      <g>
       <use style="stroke:#000000;stroke-width:0.6;" x="56.015346" xlink:href="#m09ac16e8db" y="125.024081"/>
      </g>
     </g>
    </g>
    <g id="ytick_17">
     <g id="line2d_23">
      <g>
       <use style="stroke:#000000;stroke-width:0.6;" x="56.015346" xlink:href="#m09ac16e8db" y="120.467873"/>
      </g>
     </g>
    </g>
    <g id="ytick_18">
     <g id="line2d_24">
      <g>
       <use style="stroke:#000000;stroke-width:0.6;" x="56.015346" xlink:href="#m09ac16e8db" y="116.521106"/>
      </g>
     </g>
    </g>
    <g id="ytick_19">
     <g id="line2d_25">
      <g>
       <use style="stroke:#000000;stroke-width:0.6;" x="56.015346" xlink:href="#m09ac16e8db" y="113.039811"/>
      </g>
     </g>
    </g>
    <g id="ytick_20">
     <g id="line2d_26">
      <g>
       <use style="stroke:#000000;stroke-width:0.6;" x="56.015346" xlink:href="#m09ac16e8db" y="89.43844"/>
      </g>
     </g>
    </g>
    <g id="ytick_21">
     <g id="line2d_27">
      <g>
       <use style="stroke:#000000;stroke-width:0.6;" x="56.015346" xlink:href="#m09ac16e8db" y="77.45417"/>
      </g>
     </g>
    </g>
    <g id="ytick_22">
     <g id="line2d_28">
      <g>
       <use style="stroke:#000000;stroke-width:0.6;" x="56.015346" xlink:href="#m09ac16e8db" y="68.951195"/>
      </g>
     </g>
    </g>
    <g id="ytick_23">
     <g id="line2d_29">
      <g>
       <use style="stroke:#000000;stroke-width:0.6;" x="56.015346" xlink:href="#m09ac16e8db" y="62.355775"/>
      </g>
     </g>
    </g>
    <g id="ytick_24">
     <g id="line2d_30">
      <g>
       <use style="stroke:#000000;stroke-width:0.6;" x="56.015346" xlink:href="#m09ac16e8db" y="56.966924"/>
      </g>
     </g>
    </g>
    <g id="ytick_25">
     <g id="line2d_31">
      <g>
       <use style="stroke:#000000;stroke-width:0.6;" x="56.015346" xlink:href="#m09ac16e8db" y="52.410716"/>
      </g>
     </g>
    </g>
    <g id="text_11">
     <!-- velocity -->
     <defs>
      <path d="M 2.984375 54.6875 
L 12.5 54.6875 
L 29.59375 8.796875 
L 46.6875 54.6875 
L 56.203125 54.6875 
L 35.6875 0 
L 23.484375 0 
z
" id="DejaVuSans-118"/>
      <path d="M 56.203125 29.59375 
L 56.203125 25.203125 
L 14.890625 25.203125 
Q 15.484375 15.921875 20.484375 11.0625 
Q 25.484375 6.203125 34.421875 6.203125 
Q 39.59375 6.203125 44.453125 7.46875 
Q 49.3125 8.734375 54.109375 11.28125 
L 54.109375 2.78125 
Q 49.265625 0.734375 44.1875 -0.34375 
Q 39.109375 -1.421875 33.890625 -1.421875 
Q 20.796875 -1.421875 13.15625 6.1875 
Q 5.515625 13.8125 5.515625 26.8125 
Q 5.515625 40.234375 12.765625 48.109375 
Q 20.015625 56 32.328125 56 
Q 43.359375 56 49.78125 48.890625 
Q 56.203125 41.796875 56.203125 29.59375 
z
M 47.21875 32.234375 
Q 47.125 39.59375 43.09375 43.984375 
Q 39.0625 48.390625 32.421875 48.390625 
Q 24.90625 48.390625 20.390625 44.140625 
Q 15.875 39.890625 15.1875 32.171875 
z
" id="DejaVuSans-101"/>
      <path d="M 9.421875 75.984375 
L 18.40625 75.984375 
L 18.40625 0 
L 9.421875 0 
z
" id="DejaVuSans-108"/>
      <path d="M 30.609375 48.390625 
Q 23.390625 48.390625 19.1875 42.75 
Q 14.984375 37.109375 14.984375 27.296875 
Q 14.984375 17.484375 19.15625 11.84375 
Q 23.34375 6.203125 30.609375 6.203125 
Q 37.796875 6.203125 41.984375 11.859375 
Q 46.1875 17.53125 46.1875 27.296875 
Q 46.1875 37.015625 41.984375 42.703125 
Q 37.796875 48.390625 30.609375 48.390625 
z
M 30.609375 56 
Q 42.328125 56 49.015625 48.375 
Q 55.71875 40.765625 55.71875 27.296875 
Q 55.71875 13.875 49.015625 6.21875 
Q 42.328125 -1.421875 30.609375 -1.421875 
Q 18.84375 -1.421875 12.171875 6.21875 
Q 5.515625 13.875 5.515625 27.296875 
Q 5.515625 40.765625 12.171875 48.375 
Q 18.84375 56 30.609375 56 
z
" id="DejaVuSans-111"/>
      <path d="M 48.78125 52.59375 
L 48.78125 44.1875 
Q 44.96875 46.296875 41.140625 47.34375 
Q 37.3125 48.390625 33.40625 48.390625 
Q 24.65625 48.390625 19.8125 42.84375 
Q 14.984375 37.3125 14.984375 27.296875 
Q 14.984375 17.28125 19.8125 11.734375 
Q 24.65625 6.203125 33.40625 6.203125 
Q 37.3125 6.203125 41.140625 7.25 
Q 44.96875 8.296875 48.78125 10.40625 
L 48.78125 2.09375 
Q 45.015625 0.34375 40.984375 -0.53125 
Q 36.96875 -1.421875 32.421875 -1.421875 
Q 20.0625 -1.421875 12.78125 6.34375 
Q 5.515625 14.109375 5.515625 27.296875 
Q 5.515625 40.671875 12.859375 48.328125 
Q 20.21875 56 33.015625 56 
Q 37.15625 56 41.109375 55.140625 
Q 45.0625 54.296875 48.78125 52.59375 
z
" id="DejaVuSans-99"/>
      <path d="M 9.421875 54.6875 
L 18.40625 54.6875 
L 18.40625 0 
L 9.421875 0 
z
M 9.421875 75.984375 
L 18.40625 75.984375 
L 18.40625 64.59375 
L 9.421875 64.59375 
z
" id="DejaVuSans-105"/>
      <path d="M 32.171875 -5.078125 
Q 28.375 -14.84375 24.75 -17.8125 
Q 21.140625 -20.796875 15.09375 -20.796875 
L 7.90625 -20.796875 
L 7.90625 -13.28125 
L 13.1875 -13.28125 
Q 16.890625 -13.28125 18.9375 -11.515625 
Q 21 -9.765625 23.484375 -3.21875 
L 25.09375 0.875 
L 2.984375 54.6875 
L 12.5 54.6875 
L 29.59375 11.921875 
L 46.6875 54.6875 
L 56.203125 54.6875 
z
" id="DejaVuSans-121"/>
     </defs>
     <g transform="translate(19.435659 168.138187)rotate(-90)scale(0.1 -0.1)">
      <use xlink:href="#DejaVuSans-118"/>
      <use x="59.179688" xlink:href="#DejaVuSans-101"/>
      <use x="120.703125" xlink:href="#DejaVuSans-108"/>
      <use x="148.486328" xlink:href="#DejaVuSans-111"/>
      <use x="209.667969" xlink:href="#DejaVuSans-99"/>
      <use x="264.648438" xlink:href="#DejaVuSans-105"/>
      <use x="292.431641" xlink:href="#DejaVuSans-116"/>
      <use x="331.640625" xlink:href="#DejaVuSans-121"/>
     </g>
    </g>
   </g>
   <g id="line2d_32">
    <path clip-path="url(#p68b2d37f40)" d="M 71.007677 289 
L 71.474173 142.090305 
L 72.540299 123.853158 
L 73.606425 114.226439 
L 74.672551 108.14641 
L 75.738677 104.147055 
L 76.804803 101.557626 
L 77.870929 100.041329 
L 78.937055 99.416084 
L 80.003181 99.593574 
L 81.069307 100.553226 
L 82.135433 102.286854 
L 83.20156 104.920209 
L 84.267686 108.359736 
L 85.333812 112.568391 
L 86.399938 117.882799 
L 87.466064 124.629118 
L 88.53219 133.27708 
L 90.664442 155.787644 
L 91.730568 157.994789 
L 93.86282 140.580554 
L 94.928946 134.110152 
L 95.995072 129.536393 
L 97.061198 126.41474 
L 98.127324 124.439801 
L 99.19345 123.391316 
L 100.259576 123.144157 
L 101.325702 123.630213 
L 102.391828 124.795027 
L 103.457954 126.629437 
L 104.52408 129.174074 
L 105.590206 132.438935 
L 106.656332 136.559974 
L 107.722458 141.664734 
L 108.788584 147.909262 
L 109.85471 155.628414 
L 111.986962 173.714669 
L 113.053088 177.182732 
L 114.119214 172.9082 
L 115.18534 166.094748 
L 116.251466 160.34331 
L 117.317592 156.042612 
L 118.383718 153.03483 
L 119.449844 151.097053 
L 120.51597 150.035708 
L 121.582096 149.787504 
L 122.648222 150.255473 
L 123.714348 151.403569 
L 124.780474 153.210331 
L 125.8466 155.684917 
L 126.912726 158.829336 
L 127.978852 162.592365 
L 129.044978 167.220592 
L 130.111104 172.458666 
L 132.243356 184.135932 
L 133.309482 188.42056 
L 134.375608 189.135417 
L 135.441734 186.877679 
L 137.573986 179.355382 
L 138.640112 176.387129 
L 139.706238 174.132828 
L 140.772364 172.525809 
L 141.83849 171.517761 
L 142.904616 171.237174 
L 143.970742 171.459438 
L 145.036868 172.135827 
L 146.102994 173.164197 
L 147.16912 174.766281 
L 149.301372 178.831574 
L 151.433624 183.449605 
L 152.49975 185.945281 
L 153.565876 187.625254 
L 154.632002 188.961006 
L 155.698128 189.617947 
L 156.764254 190.104257 
L 159.962633 188.227547 
L 161.028759 187.898708 
L 162.094885 187.227265 
L 163.161011 186.946068 
L 164.227137 186.871544 
L 165.293263 187.249332 
L 166.359389 187.373213 
L 168.491641 188.40653 
L 169.557767 189.295506 
L 170.623893 189.689192 
L 173.822271 191.299053 
L 177.020649 191.039155 
L 178.086775 191.088694 
L 180.219027 190.161815 
L 181.285153 189.906036 
L 182.351279 189.90758 
L 183.417405 189.490417 
L 184.483531 189.25838 
L 185.549657 189.221238 
L 186.615783 189.491315 
L 187.681909 189.333852 
L 188.748035 189.368295 
L 189.814161 189.529449 
L 190.880287 190.007448 
L 191.946413 189.955814 
L 194.078665 190.266534 
L 195.144791 190.763298 
L 196.210917 190.640969 
L 198.343169 190.799228 
L 199.409295 191.216383 
L 200.475421 190.992103 
L 202.607673 191.010414 
L 203.673799 191.374282 
L 204.739925 191.109291 
L 206.872177 191.093529 
L 207.938303 191.446312 
L 209.004429 191.176809 
L 211.136681 191.153894 
L 212.202807 191.495738 
L 213.268933 191.21241 
L 215.401185 191.150767 
L 216.467311 191.469467 
L 217.533437 191.163727 
L 219.665689 191.060832 
L 220.731815 191.366607 
L 221.797941 191.052639 
L 223.930193 190.949699 
L 224.996319 191.26726 
L 226.062445 190.966499 
L 228.194697 190.899305 
L 229.260823 191.241191 
L 230.326949 190.959707 
L 232.459201 190.929475 
L 233.525327 191.289438 
L 234.591453 191.018602 
L 236.723706 191.004599 
L 237.789832 191.370504 
L 238.855958 191.100011 
L 240.98821 191.08495 
L 242.054336 191.448546 
L 243.120462 191.173188 
L 245.252714 191.14896 
L 246.31884 191.507073 
L 247.384966 191.225236 
L 249.517218 191.190386 
L 250.583344 191.542728 
L 251.64947 191.254894 
L 253.781722 191.210509 
L 254.847848 191.55812 
L 255.913974 191.265725 
L 258.046226 191.214742 
L 259.112352 191.559886 
L 260.178478 191.265341 
L 262.31073 191.212625 
L 263.376856 191.558195 
L 264.442982 191.264243 
L 266.575234 191.214972 
L 267.64136 191.563279 
L 268.707486 191.271867 
L 270.839738 191.228748 
L 271.905864 191.580524 
L 272.97199 191.291969 
L 275.104242 191.254679 
L 276.170368 191.609038 
L 277.236494 191.322445 
L 279.368746 191.28867 
L 280.434872 191.644135 
L 281.500998 191.358013 
L 283.63325 191.325133 
L 284.699376 191.680228 
L 285.765502 191.393556 
L 287.897754 191.359716 
L 288.96388 191.71362 
L 290.030006 191.42581 
L 292.162258 191.390313 
L 293.228384 191.742803 
L 294.29451 191.453874 
L 296.426762 191.416963 
L 297.492888 191.768245 
L 298.559014 191.478618 
L 300.691266 191.441086 
L 301.757392 191.791706 
L 302.823518 191.501916 
L 304.95577 191.464817 
L 306.021896 191.81553 
L 307.088022 191.52629 
L 309.220274 191.490116 
L 310.2864 191.840875 
L 311.352527 191.552368 
L 313.484779 191.517855 
L 314.550905 191.868728 
L 315.617031 191.581101 
L 317.749283 191.548438 
L 318.815409 191.899096 
L 319.881535 191.612054 
L 322.013787 191.58051 
L 323.079913 191.930754 
L 324.146039 191.644248 
L 326.278291 191.613595 
L 327.344417 191.963091 
L 328.410543 191.676834 
L 330.542795 191.646656 
L 331.608921 191.995298 
L 332.675047 191.709259 
L 334.807299 191.679469 
L 335.873425 192.027162 
L 335.873425 192.027162 
" style="fill:none;stroke:#1f77b4;stroke-dasharray:5.55,2.4;stroke-dashoffset:0;stroke-width:1.5;"/>
   </g>
   <g id="line2d_33">
    <path clip-path="url(#p68b2d37f40)" d="M 71.007677 289 
L 71.474173 142.090305 
L 72.540299 123.853158 
L 73.606425 114.226439 
L 74.672551 108.14641 
L 75.738677 104.147055 
L 76.804803 101.557626 
L 77.870929 100.041329 
L 78.937055 99.416084 
L 80.003181 99.593574 
L 81.069307 100.553226 
L 82.135433 102.286854 
L 83.20156 104.920209 
L 84.267686 108.359736 
L 85.333812 112.568391 
L 86.399938 117.882799 
L 87.466064 124.629118 
L 88.53219 133.27708 
L 90.664442 155.787644 
L 91.730568 157.994789 
L 93.86282 140.580554 
L 94.928946 134.110152 
L 95.995072 129.536393 
L 97.061198 126.41474 
L 98.127324 124.439801 
L 99.19345 123.391316 
L 100.259576 123.144157 
L 101.325702 123.630213 
L 102.391828 124.795027 
L 103.457954 126.629437 
L 104.52408 129.174074 
L 105.590206 132.438935 
L 106.656332 136.559974 
L 107.722458 141.664734 
L 108.788584 147.909262 
L 109.85471 155.628414 
L 111.986962 173.714669 
L 113.053088 177.182732 
L 114.119214 172.9082 
L 115.18534 166.094748 
L 116.251466 160.34331 
L 117.317592 156.042612 
L 118.383718 153.03483 
L 119.449844 151.097053 
L 120.51597 150.035708 
L 121.582096 149.787504 
L 122.648222 150.255473 
L 123.714348 151.403569 
L 124.780474 153.210331 
L 125.8466 155.684917 
L 126.912726 158.829336 
L 127.978852 162.592365 
L 129.044978 167.220592 
L 130.111104 172.458666 
L 132.243356 184.135932 
L 133.309482 188.42056 
L 134.375608 189.135417 
L 135.441734 186.877679 
L 137.573986 179.355382 
L 138.640112 176.387129 
L 139.706238 174.132828 
L 140.772364 172.525809 
L 141.83849 171.517761 
L 142.904616 171.237174 
L 143.970742 171.459438 
L 145.036868 172.135827 
L 146.102994 173.164197 
L 147.16912 174.766281 
L 149.301372 178.831574 
L 151.433624 183.449605 
L 152.49975 185.945281 
L 153.565876 187.625254 
L 154.632002 188.961006 
L 155.698128 189.617947 
L 156.764254 190.104257 
L 159.962633 188.227547 
L 161.028759 187.898708 
L 162.094885 187.227265 
L 163.161011 186.946068 
L 164.227137 186.871544 
L 165.293263 187.249332 
L 166.359389 187.373213 
L 168.491641 188.40653 
L 169.557767 189.295506 
L 170.623893 189.689192 
L 173.822271 191.299053 
L 177.020649 191.039155 
L 178.086775 191.088694 
L 180.219027 190.161815 
L 181.285153 189.906036 
L 182.351279 189.90758 
L 183.417405 189.490417 
L 184.483531 189.25838 
L 185.549657 189.221238 
L 186.615783 189.491315 
L 187.681909 189.333852 
L 188.748035 189.368295 
L 189.814161 189.529449 
L 190.880287 190.007448 
L 191.946413 189.955814 
L 194.078665 190.266534 
L 195.144791 190.763298 
L 196.210917 190.640969 
L 198.343169 190.799228 
L 199.409295 191.216383 
L 200.475421 190.992103 
L 202.607673 191.010414 
L 203.673799 191.374282 
L 204.739925 191.109291 
L 206.872177 191.093529 
L 207.938303 191.446312 
L 209.004429 191.176809 
L 211.136681 191.153894 
L 212.202807 191.495738 
L 213.268933 191.21241 
L 215.401185 191.150767 
L 216.467311 191.469467 
L 217.533437 191.163727 
L 219.665689 191.060832 
L 220.731815 191.366607 
L 221.797941 191.052639 
L 223.930193 190.949699 
L 224.996319 191.26726 
L 226.062445 190.966499 
L 228.194697 190.899305 
L 229.260823 191.241191 
L 230.326949 190.959707 
L 232.459201 190.929475 
L 233.525327 191.289438 
L 234.591453 191.018602 
L 236.723706 191.004599 
L 237.789832 191.370504 
L 238.855958 191.100011 
L 240.98821 191.08495 
L 242.054336 191.448546 
L 243.120462 191.173188 
L 245.252714 191.14896 
L 246.31884 191.507073 
L 247.384966 191.225236 
L 249.517218 191.190386 
L 250.583344 191.542728 
L 251.64947 191.254894 
L 253.781722 191.210509 
L 254.847848 191.55812 
L 255.913974 191.265725 
L 258.046226 191.214742 
L 259.112352 191.559886 
L 260.178478 191.265341 
L 262.31073 191.212625 
L 263.376856 191.558195 
L 264.442982 191.264243 
L 266.575234 191.214972 
L 267.64136 191.563279 
L 268.707486 191.271867 
L 270.839738 191.228748 
L 271.905864 191.580524 
L 272.97199 191.291969 
L 275.104242 191.254679 
L 276.170368 191.609038 
L 277.236494 191.322445 
L 279.368746 191.28867 
L 280.434872 191.644135 
L 281.500998 191.358013 
L 283.63325 191.325133 
L 284.699376 191.680228 
L 285.765502 191.393556 
L 287.897754 191.359716 
L 288.96388 191.71362 
L 290.030006 191.42581 
L 292.162258 191.390313 
L 293.228384 191.742803 
L 294.29451 191.453874 
L 296.426762 191.416963 
L 297.492888 191.768245 
L 298.559014 191.478618 
L 300.691266 191.441086 
L 301.757392 191.791706 
L 302.823518 191.501916 
L 304.95577 191.464817 
L 306.021896 191.81553 
L 307.088022 191.52629 
L 309.220274 191.490116 
L 310.2864 191.840875 
L 311.352527 191.552368 
L 313.484779 191.517855 
L 314.550905 191.868728 
L 315.617031 191.581101 
L 317.749283 191.548438 
L 318.815409 191.899096 
L 319.881535 191.612054 
L 322.013787 191.58051 
L 323.079913 191.930754 
L 324.146039 191.644248 
L 326.278291 191.613595 
L 327.344417 191.963091 
L 328.410543 191.676834 
L 330.542795 191.646656 
L 331.608921 191.995298 
L 332.675047 191.709259 
L 334.807299 191.679469 
L 335.873425 192.027162 
L 335.873425 192.027162 
" style="fill:none;stroke:#1f77b4;stroke-linecap:square;stroke-width:1.5;"/>
   </g>
   <g id="line2d_34">
    <path clip-path="url(#p68b2d37f40)" d="M 70.890389 289 
L 71.474173 109.917952 
L 72.540299 92.886035 
L 73.606425 85.317594 
L 74.672551 81.633768 
L 76.804803 78.36454 
L 77.870929 77.622732 
L 78.937055 75.816659 
L 80.003181 72.713524 
L 81.069307 71.628092 
L 82.135433 71.470296 
L 83.20156 73.532845 
L 84.267686 77.5793 
L 86.399938 89.390261 
L 87.466064 93.541802 
L 88.53219 98.394151 
L 89.598316 104.352691 
L 90.664442 107.834666 
L 91.730568 112.869115 
L 92.796694 122.086436 
L 94.928946 110.103541 
L 95.995072 105.226489 
L 97.061198 102.023192 
L 98.127324 100.782835 
L 99.19345 98.405263 
L 100.259576 96.975958 
L 101.325702 98.379009 
L 102.391828 97.516494 
L 103.457954 98.01026 
L 104.52408 101.845969 
L 105.590206 102.596357 
L 106.656332 101.975776 
L 107.722458 101.98705 
L 108.788584 103.237364 
L 110.920836 108.029844 
L 111.986962 111.401014 
L 113.053088 115.557301 
L 116.251466 131.790038 
L 117.317592 130.457177 
L 118.383718 126.767377 
L 119.449844 124.266421 
L 120.51597 122.5984 
L 121.582096 121.746069 
L 122.648222 121.677508 
L 124.780474 122.715696 
L 125.8466 123.903927 
L 126.912726 124.59683 
L 127.978852 125.145283 
L 129.044978 128.739475 
L 130.111104 130.152809 
L 131.17723 134.958667 
L 132.243356 137.485248 
L 133.309482 140.719882 
L 134.375608 140.348276 
L 136.50786 135.115101 
L 137.573986 131.757343 
L 138.640112 129.82556 
L 140.772364 126.553335 
L 141.83849 124.694369 
L 142.904616 124.043982 
L 143.970742 123.565133 
L 145.036868 122.825311 
L 146.102994 121.862914 
L 147.16912 122.087154 
L 148.235246 122.492908 
L 150.367498 122.186274 
L 151.433624 122.840541 
L 152.49975 124.163164 
L 153.565876 124.381228 
L 154.632002 124.945343 
L 155.698128 125.90391 
L 156.764254 127.778286 
L 157.83038 128.112523 
L 158.896506 128.781749 
L 159.962633 129.679907 
L 161.028759 131.582421 
L 162.094885 131.606591 
L 163.161011 131.912241 
L 164.227137 132.426038 
L 165.293263 133.971829 
L 166.359389 133.512894 
L 167.425515 133.196307 
L 168.491641 133.338084 
L 169.557767 134.309842 
L 171.690019 132.637723 
L 172.756145 132.544485 
L 173.822271 133.059698 
L 174.888397 132.153073 
L 175.954523 131.026032 
L 177.020649 130.871088 
L 178.086775 131.208002 
L 179.152901 130.351818 
L 180.219027 129.285247 
L 181.285153 129.200575 
L 182.351279 129.608102 
L 184.483531 128.048129 
L 185.549657 128.092267 
L 186.615783 128.710192 
L 188.748035 127.567803 
L 189.814161 127.735848 
L 190.880287 128.592918 
L 191.946413 128.115361 
L 193.012539 127.777776 
L 194.078665 128.018936 
L 195.144791 129.064866 
L 196.210917 128.623046 
L 197.277043 128.414553 
L 198.343169 128.65979 
L 199.409295 129.805205 
L 200.475421 129.3346 
L 201.541547 129.147518 
L 202.607673 129.347005 
L 203.673799 130.495425 
L 204.739925 129.948604 
L 205.806051 129.695595 
L 206.872177 129.818357 
L 207.938303 130.903846 
L 209.004429 130.2692 
L 210.070555 129.921637 
L 211.136681 129.969989 
L 212.202807 130.974785 
L 213.268933 130.273852 
L 214.335059 129.851599 
L 215.401185 129.850287 
L 216.467311 130.795405 
L 217.533437 130.062246 
L 218.599563 129.611089 
L 219.665689 129.588239 
L 220.731815 130.515484 
L 221.797941 129.777348 
L 222.864067 129.345149 
L 223.930193 129.323482 
L 224.996319 130.270818 
L 226.062445 129.547837 
L 227.128571 129.16245 
L 228.194697 129.155938 
L 229.260823 130.142896 
L 230.326949 129.443231 
L 231.393075 129.107053 
L 232.459201 129.119992 
L 233.525327 130.143143 
L 234.591453 129.464207 
L 235.65758 129.161442 
L 236.723706 129.187636 
L 237.789832 130.237025 
L 238.855958 129.567707 
L 239.922084 129.284526 
L 240.98821 129.312559 
L 242.054336 130.376306 
L 243.120462 129.704549 
L 244.186588 129.425395 
L 245.252714 129.4443 
L 246.31884 130.509477 
L 247.384966 129.824544 
L 248.451092 129.538511 
L 249.517218 129.541163 
L 250.583344 130.599307 
L 251.64947 129.897404 
L 252.715596 129.601 
L 253.781722 129.586621 
L 254.847848 130.635316 
L 255.913974 129.919068 
L 256.9801 129.615309 
L 258.046226 129.587693 
L 259.112352 130.630178 
L 260.178478 129.905889 
L 261.244604 129.601272 
L 262.31073 129.566542 
L 263.376856 130.608349 
L 264.442982 129.882354 
L 265.509108 129.583496 
L 266.575234 129.547006 
L 267.64136 130.593204 
L 268.707486 129.87009 
L 269.773612 129.581258 
L 270.839738 129.545763 
L 271.905864 130.599539 
L 272.97199 129.880931 
L 274.038116 129.603294 
L 275.104242 129.568947 
L 276.170368 130.630694 
L 277.236494 129.915851 
L 278.30262 129.647928 
L 279.368746 129.612975 
L 280.434872 130.681438 
L 281.500998 129.967649 
L 282.567124 129.70648 
L 283.63325 129.668456 
L 284.699376 130.740971 
L 285.765502 130.025853 
L 286.831628 129.768499 
L 287.897754 129.725289 
L 288.96388 130.799666 
L 290.030006 130.081263 
L 291.096132 129.825872 
L 292.162258 129.776298 
L 293.228384 130.851054 
L 294.29451 130.12889 
L 295.360636 129.874755 
L 296.426762 129.818985 
L 297.492888 130.893676 
L 298.559014 130.168468 
L 299.62514 129.916176 
L 300.691266 129.854967 
L 301.757392 130.930187 
L 302.823518 130.203162 
L 303.889644 129.953812 
L 304.95577 129.888336 
L 306.021896 130.96499 
L 307.088022 130.237476 
L 308.154148 129.992146 
L 309.220274 129.923399 
L 310.2864 131.002208 
L 311.352527 130.275291 
L 312.418653 130.034624 
L 313.484779 129.96314 
L 314.550905 131.044416 
L 315.617031 130.318683 
L 316.683157 130.082718 
L 317.749283 130.008544 
L 318.815409 131.092415 
L 319.881535 130.3676 
L 320.947661 130.13601 
L 322.013787 130.058846 
L 323.079913 131.144853 
L 324.146039 130.420735 
L 325.212165 130.192881 
L 326.278291 130.112302 
L 327.344417 131.199985 
L 328.410543 130.475928 
L 329.476669 130.251348 
L 330.542795 130.16718 
L 331.608921 131.256126 
L 332.675047 130.53198 
L 333.741173 130.310267 
L 334.807299 130.22236 
L 335.873425 131.312187 
L 335.873425 131.312187 
" style="fill:none;stroke:#ff7f0e;stroke-dasharray:5.55,2.4;stroke-dashoffset:0;stroke-width:1.5;"/>
   </g>
   <g id="line2d_35">
    <path clip-path="url(#p68b2d37f40)" d="M 70.890389 289 
L 71.474173 109.917952 
L 72.540299 92.886035 
L 73.606425 85.317594 
L 74.672551 81.633768 
L 76.804803 78.36454 
L 77.870929 77.622732 
L 78.937055 75.816659 
L 80.003181 72.713524 
L 81.069307 71.628092 
L 82.135433 71.470296 
L 83.20156 73.532845 
L 84.267686 77.5793 
L 86.399938 89.390261 
L 87.466064 93.541802 
L 88.53219 98.394151 
L 89.598316 104.352691 
L 90.664442 107.834666 
L 91.730568 112.869115 
L 92.796694 122.086436 
L 94.928946 110.103541 
L 95.995072 105.226489 
L 97.061198 102.023192 
L 98.127324 100.782835 
L 99.19345 98.405263 
L 100.259576 96.975958 
L 101.325702 98.379009 
L 102.391828 97.516494 
L 103.457954 98.01026 
L 104.52408 101.845969 
L 105.590206 102.596357 
L 106.656332 101.975776 
L 107.722458 101.98705 
L 108.788584 103.237364 
L 110.920836 108.029844 
L 111.986962 111.401014 
L 113.053088 115.557301 
L 116.251466 131.790038 
L 117.317592 130.457177 
L 118.383718 126.767377 
L 119.449844 124.266421 
L 120.51597 122.5984 
L 121.582096 121.746069 
L 122.648222 121.677508 
L 124.780474 122.715696 
L 125.8466 123.903927 
L 126.912726 124.59683 
L 127.978852 125.145283 
L 129.044978 128.739475 
L 130.111104 130.152809 
L 131.17723 134.958667 
L 132.243356 137.485248 
L 133.309482 140.719882 
L 134.375608 140.348276 
L 136.50786 135.115101 
L 137.573986 131.757343 
L 138.640112 129.82556 
L 140.772364 126.553335 
L 141.83849 124.694369 
L 142.904616 124.043982 
L 143.970742 123.565133 
L 145.036868 122.825311 
L 146.102994 121.862914 
L 147.16912 122.087154 
L 148.235246 122.492908 
L 150.367498 122.186274 
L 151.433624 122.840541 
L 152.49975 124.163164 
L 153.565876 124.381228 
L 154.632002 124.945343 
L 155.698128 125.90391 
L 156.764254 127.778286 
L 157.83038 128.112523 
L 158.896506 128.781749 
L 159.962633 129.679907 
L 161.028759 131.582421 
L 162.094885 131.606591 
L 163.161011 131.912241 
L 164.227137 132.426038 
L 165.293263 133.971829 
L 166.359389 133.512894 
L 167.425515 133.196307 
L 168.491641 133.338084 
L 169.557767 134.309842 
L 171.690019 132.637723 
L 172.756145 132.544485 
L 173.822271 133.059698 
L 174.888397 132.153073 
L 175.954523 131.026032 
L 177.020649 130.871088 
L 178.086775 131.208002 
L 179.152901 130.351818 
L 180.219027 129.285247 
L 181.285153 129.200575 
L 182.351279 129.608102 
L 184.483531 128.048129 
L 185.549657 128.092267 
L 186.615783 128.710192 
L 188.748035 127.567803 
L 189.814161 127.735848 
L 190.880287 128.592918 
L 191.946413 128.115361 
L 193.012539 127.777776 
L 194.078665 128.018936 
L 195.144791 129.064866 
L 196.210917 128.623046 
L 197.277043 128.414553 
L 198.343169 128.65979 
L 199.409295 129.805205 
L 200.475421 129.3346 
L 201.541547 129.147518 
L 202.607673 129.347005 
L 203.673799 130.495425 
L 204.739925 129.948604 
L 205.806051 129.695595 
L 206.872177 129.818357 
L 207.938303 130.903846 
L 209.004429 130.2692 
L 210.070555 129.921637 
L 211.136681 129.969989 
L 212.202807 130.974785 
L 213.268933 130.273852 
L 214.335059 129.851599 
L 215.401185 129.850287 
L 216.467311 130.795405 
L 217.533437 130.062246 
L 218.599563 129.611089 
L 219.665689 129.588239 
L 220.731815 130.515484 
L 221.797941 129.777348 
L 222.864067 129.345149 
L 223.930193 129.323482 
L 224.996319 130.270818 
L 226.062445 129.547837 
L 227.128571 129.16245 
L 228.194697 129.155938 
L 229.260823 130.142896 
L 230.326949 129.443231 
L 231.393075 129.107053 
L 232.459201 129.119992 
L 233.525327 130.143143 
L 234.591453 129.464207 
L 235.65758 129.161442 
L 236.723706 129.187636 
L 237.789832 130.237025 
L 238.855958 129.567707 
L 239.922084 129.284526 
L 240.98821 129.312559 
L 242.054336 130.376306 
L 243.120462 129.704549 
L 244.186588 129.425395 
L 245.252714 129.4443 
L 246.31884 130.509477 
L 247.384966 129.824544 
L 248.451092 129.538511 
L 249.517218 129.541163 
L 250.583344 130.599307 
L 251.64947 129.897404 
L 252.715596 129.601 
L 253.781722 129.586621 
L 254.847848 130.635316 
L 255.913974 129.919068 
L 256.9801 129.615309 
L 258.046226 129.587693 
L 259.112352 130.630178 
L 260.178478 129.905889 
L 261.244604 129.601272 
L 262.31073 129.566542 
L 263.376856 130.608349 
L 264.442982 129.882354 
L 265.509108 129.583496 
L 266.575234 129.547006 
L 267.64136 130.593204 
L 268.707486 129.87009 
L 269.773612 129.581258 
L 270.839738 129.545763 
L 271.905864 130.599539 
L 272.97199 129.880931 
L 274.038116 129.603294 
L 275.104242 129.568947 
L 276.170368 130.630694 
L 277.236494 129.915851 
L 278.30262 129.647928 
L 279.368746 129.612975 
L 280.434872 130.681438 
L 281.500998 129.967649 
L 282.567124 129.70648 
L 283.63325 129.668456 
L 284.699376 130.740971 
L 285.765502 130.025853 
L 286.831628 129.768499 
L 287.897754 129.725289 
L 288.96388 130.799666 
L 290.030006 130.081263 
L 291.096132 129.825872 
L 292.162258 129.776298 
L 293.228384 130.851054 
L 294.29451 130.12889 
L 295.360636 129.874755 
L 296.426762 129.818985 
L 297.492888 130.893676 
L 298.559014 130.168468 
L 299.62514 129.916176 
L 300.691266 129.854967 
L 301.757392 130.930187 
L 302.823518 130.203162 
L 303.889644 129.953812 
L 304.95577 129.888336 
L 306.021896 130.96499 
L 307.088022 130.237476 
L 308.154148 129.992146 
L 309.220274 129.923399 
L 310.2864 131.002208 
L 311.352527 130.275291 
L 312.418653 130.034624 
L 313.484779 129.96314 
L 314.550905 131.044416 
L 315.617031 130.318683 
L 316.683157 130.082718 
L 317.749283 130.008544 
L 318.815409 131.092415 
L 319.881535 130.3676 
L 320.947661 130.13601 
L 322.013787 130.058846 
L 323.079913 131.144853 
L 324.146039 130.420735 
L 325.212165 130.192881 
L 326.278291 130.112302 
L 327.344417 131.199985 
L 328.410543 130.475928 
L 329.476669 130.251348 
L 330.542795 130.16718 
L 331.608921 131.256126 
L 332.675047 130.53198 
L 333.741173 130.310267 
L 334.807299 130.22236 
L 335.873425 131.312187 
L 335.873425 131.312187 
" style="fill:none;stroke:#ff7f0e;stroke-linecap:square;stroke-width:1.5;"/>
   </g>
   <g id="patch_3">
    <path d="M 56.015346 246.04 
L 56.015346 51.152 
" style="fill:none;stroke:#000000;stroke-linecap:square;stroke-linejoin:miter;stroke-width:0.8;"/>
   </g>
   <g id="patch_4">
    <path d="M 349.2 246.04 
L 349.2 51.152 
" style="fill:none;stroke:#000000;stroke-linecap:square;stroke-linejoin:miter;stroke-width:0.8;"/>
   </g>
   <g id="patch_5">
    <path d="M 56.015346 246.04 
L 349.2 246.04 
" style="fill:none;stroke:#000000;stroke-linecap:square;stroke-linejoin:miter;stroke-width:0.8;"/>
   </g>
   <g id="patch_6">
    <path d="M 56.015346 51.152 
L 349.2 51.152 
" style="fill:none;stroke:#000000;stroke-linecap:square;stroke-linejoin:miter;stroke-width:0.8;"/>
   </g>
   <g id="legend_1">
    <g id="patch_7">
     <path d="M 67.496423 30.3169 
L 337.718923 30.3169 
Q 339.318923 30.3169 339.318923 28.7169 
L 339.318923 17.7744 
Q 339.318923 16.1744 337.718923 16.1744 
L 67.496423 16.1744 
Q 65.896423 16.1744 65.896423 17.7744 
L 65.896423 28.7169 
Q 65.896423 30.3169 67.496423 30.3169 
z
" style="fill:#ffffff;opacity:0.8;stroke:#cccccc;stroke-linejoin:miter;"/>
    </g>
    <g id="line2d_36">
     <path d="M 69.096423 22.65315 
L 97.096423 22.65315 
" style="fill:none;stroke:#1f77b4;stroke-dasharray:5.55,2.4;stroke-dashoffset:0;stroke-width:1.5;"/>
    </g>
    <g id="line2d_37"/>
    <g id="text_12">
     <!-- L2-ref -->
     <defs>
      <path d="M 9.8125 72.90625 
L 19.671875 72.90625 
L 19.671875 8.296875 
L 55.171875 8.296875 
L 55.171875 0 
L 9.8125 0 
z
" id="DejaVuSans-76"/>
      <path d="M 4.890625 31.390625 
L 31.203125 31.390625 
L 31.203125 23.390625 
L 4.890625 23.390625 
z
" id="DejaVuSans-45"/>
      <path d="M 41.109375 46.296875 
Q 39.59375 47.171875 37.8125 47.578125 
Q 36.03125 48 33.890625 48 
Q 26.265625 48 22.1875 43.046875 
Q 18.109375 38.09375 18.109375 28.8125 
L 18.109375 0 
L 9.078125 0 
L 9.078125 54.6875 
L 18.109375 54.6875 
L 18.109375 46.1875 
Q 20.953125 51.171875 25.484375 53.578125 
Q 30.03125 56 36.53125 56 
Q 37.453125 56 38.578125 55.875 
Q 39.703125 55.765625 41.0625 55.515625 
z
" id="DejaVuSans-114"/>
      <path d="M 37.109375 75.984375 
L 37.109375 68.5 
L 28.515625 68.5 
Q 23.6875 68.5 21.796875 66.546875 
Q 19.921875 64.59375 19.921875 59.515625 
L 19.921875 54.6875 
L 34.71875 54.6875 
L 34.71875 47.703125 
L 19.921875 47.703125 
L 19.921875 0 
L 10.890625 0 
L 10.890625 47.703125 
L 2.296875 47.703125 
L 2.296875 54.6875 
L 10.890625 54.6875 
L 10.890625 58.5 
Q 10.890625 67.625 15.140625 71.796875 
Q 19.390625 75.984375 28.609375 75.984375 
z
" id="DejaVuSans-102"/>
     </defs>
     <g transform="translate(103.496423 25.45315)scale(0.08 -0.08)">
      <use xlink:href="#DejaVuSans-76"/>
      <use x="55.712891" xlink:href="#DejaVuSans-50"/>
      <use x="119.335938" xlink:href="#DejaVuSans-45"/>
      <use x="155.419922" xlink:href="#DejaVuSans-114"/>
      <use x="194.283203" xlink:href="#DejaVuSans-101"/>
      <use x="255.806641" xlink:href="#DejaVuSans-102"/>
     </g>
    </g>
    <g id="line2d_38">
     <path d="M 142.777673 22.65315 
L 170.777673 22.65315 
" style="fill:none;stroke:#1f77b4;stroke-linecap:square;stroke-width:1.5;"/>
    </g>
    <g id="line2d_39"/>
    <g id="text_13">
     <!-- L2 -->
     <g transform="translate(177.177673 25.45315)scale(0.08 -0.08)">
      <use xlink:href="#DejaVuSans-76"/>
      <use x="55.712891" xlink:href="#DejaVuSans-50"/>
     </g>
    </g>
    <g id="line2d_40">
     <path d="M 202.725173 22.65315 
L 230.725173 22.65315 
" style="fill:none;stroke:#ff7f0e;stroke-dasharray:5.55,2.4;stroke-dashoffset:0;stroke-width:1.5;"/>
    </g>
    <g id="line2d_41"/>
    <g id="text_14">
     <!-- max-ref -->
     <defs>
      <path d="M 52 44.1875 
Q 55.375 50.25 60.0625 53.125 
Q 64.75 56 71.09375 56 
Q 79.640625 56 84.28125 50.015625 
Q 88.921875 44.046875 88.921875 33.015625 
L 88.921875 0 
L 79.890625 0 
L 79.890625 32.71875 
Q 79.890625 40.578125 77.09375 44.375 
Q 74.3125 48.1875 68.609375 48.1875 
Q 61.625 48.1875 57.5625 43.546875 
Q 53.515625 38.921875 53.515625 30.90625 
L 53.515625 0 
L 44.484375 0 
L 44.484375 32.71875 
Q 44.484375 40.625 41.703125 44.40625 
Q 38.921875 48.1875 33.109375 48.1875 
Q 26.21875 48.1875 22.15625 43.53125 
Q 18.109375 38.875 18.109375 30.90625 
L 18.109375 0 
L 9.078125 0 
L 9.078125 54.6875 
L 18.109375 54.6875 
L 18.109375 46.1875 
Q 21.1875 51.21875 25.484375 53.609375 
Q 29.78125 56 35.6875 56 
Q 41.65625 56 45.828125 52.96875 
Q 50 49.953125 52 44.1875 
z
" id="DejaVuSans-109"/>
      <path d="M 34.28125 27.484375 
Q 23.390625 27.484375 19.1875 25 
Q 14.984375 22.515625 14.984375 16.5 
Q 14.984375 11.71875 18.140625 8.90625 
Q 21.296875 6.109375 26.703125 6.109375 
Q 34.1875 6.109375 38.703125 11.40625 
Q 43.21875 16.703125 43.21875 25.484375 
L 43.21875 27.484375 
z
M 52.203125 31.203125 
L 52.203125 0 
L 43.21875 0 
L 43.21875 8.296875 
Q 40.140625 3.328125 35.546875 0.953125 
Q 30.953125 -1.421875 24.3125 -1.421875 
Q 15.921875 -1.421875 10.953125 3.296875 
Q 6 8.015625 6 15.921875 
Q 6 25.140625 12.171875 29.828125 
Q 18.359375 34.515625 30.609375 34.515625 
L 43.21875 34.515625 
L 43.21875 35.40625 
Q 43.21875 41.609375 39.140625 45 
Q 35.0625 48.390625 27.6875 48.390625 
Q 23 48.390625 18.546875 47.265625 
Q 14.109375 46.140625 10.015625 43.890625 
L 10.015625 52.203125 
Q 14.9375 54.109375 19.578125 55.046875 
Q 24.21875 56 28.609375 56 
Q 40.484375 56 46.34375 49.84375 
Q 52.203125 43.703125 52.203125 31.203125 
z
" id="DejaVuSans-97"/>
      <path d="M 54.890625 54.6875 
L 35.109375 28.078125 
L 55.90625 0 
L 45.3125 0 
L 29.390625 21.484375 
L 13.484375 0 
L 2.875 0 
L 24.125 28.609375 
L 4.6875 54.6875 
L 15.28125 54.6875 
L 29.78125 35.203125 
L 44.28125 54.6875 
z
" id="DejaVuSans-120"/>
     </defs>
     <g transform="translate(237.125173 25.45315)scale(0.08 -0.08)">
      <use xlink:href="#DejaVuSans-109"/>
      <use x="97.412109" xlink:href="#DejaVuSans-97"/>
      <use x="158.691406" xlink:href="#DejaVuSans-120"/>
      <use x="217.871094" xlink:href="#DejaVuSans-45"/>
      <use x="253.955078" xlink:href="#DejaVuSans-114"/>
      <use x="292.818359" xlink:href="#DejaVuSans-101"/>
      <use x="354.341797" xlink:href="#DejaVuSans-102"/>
     </g>
    </g>
    <g id="line2d_42">
     <path d="M 284.288923 22.65315 
L 312.288923 22.65315 
" style="fill:none;stroke:#ff7f0e;stroke-linecap:square;stroke-width:1.5;"/>
    </g>
    <g id="line2d_43"/>
    <g id="text_15">
     <!-- max -->
     <g transform="translate(318.688923 25.45315)scale(0.08 -0.08)">
      <use xlink:href="#DejaVuSans-109"/>
      <use x="97.412109" xlink:href="#DejaVuSans-97"/>
      <use x="158.691406" xlink:href="#DejaVuSans-120"/>
     </g>
    </g>
   </g>
  </g>
 </g>
 <defs>
  <clipPath id="p68b2d37f40">
   <rect height="194.888" width="293.184654" x="56.015346" y="51.152"/>
  </clipPath>
 </defs>
</svg>
